<?xml version="1.0" encoding="iso-8859-1"?>
<!-- Generator: Adobe Illustrator 19.0.0, SVG Export Plug-In . SVG Version: 6.00 Build 0)  -->
<svg xmlns="http://www.w3.org/2000/svg" xmlns:xlink="http://www.w3.org/1999/xlink" version="1.1" id="Layer_1" x="0px" y="0px" viewBox="0 0 512 512" style="enable-background:new 0 0 512 512;" xml:space="preserve" width="512px" height="512px">
<g>
	<g>
		<g>
			<path d="M358.113,400.109h-15.251v-15.364c0-6.428-5.221-11.657-11.637-11.657H310.54c-6.416,0-11.636,5.229-11.636,11.657     v15.364h-15.252c-6.417,0-11.637,5.229-11.637,11.657v20.786c0,6.428,5.22,11.657,11.637,11.657h15.252v15.364     c0,6.428,5.22,11.657,11.636,11.657h20.684c6.416,0,11.637-5.229,11.637-11.657v-15.364h15.251     c6.416,0,11.637-5.229,11.637-11.657v-20.786C369.749,405.338,364.528,400.109,358.113,400.109z M354.749,429.209h-19.388     c-4.143,0-7.5,3.358-7.5,7.5v19.521h-13.956v-19.521c0-4.142-3.357-7.5-7.5-7.5h-19.389v-14.1h19.389c4.143,0,7.5-3.358,7.5-7.5     v-19.521h13.956v19.521c0,4.142,3.357,7.5,7.5,7.5h19.388V429.209z" fill="#FFFFFF"/>
			<path d="M458.499,9.707h-315.5c-4.143,0-7.5,3.358-7.5,7.5c0,4.142,3.357,7.5,7.5,7.5h93.341c1.379,0,2.5,1.122,2.5,2.5v212.969     c0,1.378-1.121,2.5-2.5,2.5H53.499c-1.379,0-2.5-1.122-2.5-2.5V27.207c0-1.378,1.121-2.5,2.5-2.5h11.478v21.717     c0,14.788,12.03,26.818,26.818,26.818c14.787,0,26.817-12.031,26.817-26.818V7.5c0-4.142-3.357-7.5-7.5-7.5H72.478     c-4.143,0-7.5,3.358-7.5,7.5v2.207H53.499c-9.649,0-17.5,7.851-17.5,17.5V494.5c0,9.649,7.851,17.5,17.5,17.5h347.046     c0.506,0,1.007-0.021,1.502-0.064c0.322,0.042,0.65,0.064,0.983,0.064h36.15c9.649,0,17.5-7.851,17.5-17.5V156     c0-4.142-3.357-7.5-7.5-7.5s-7.5,3.358-7.5,7.5v338.5c0,1.378-1.121,2.5-2.5,2.5h-21.313c0.117-0.817,0.178-1.651,0.178-2.5     V148.023l48.312-24.276c5.948-2.989,9.643-8.98,9.643-15.637V27.207C475.999,17.558,468.148,9.707,458.499,9.707z M103.613,15     v31.424c0,6.517-5.302,11.818-11.817,11.818c-6.517,0-11.818-5.302-11.818-11.818V15H103.613z M460.999,108.111     c0,0.951-0.527,1.807-1.377,2.233l-41.577,20.892V70c0-4.142-3.357-7.5-7.5-7.5s-7.5,3.358-7.5,7.5v73.247     c-0.002,0.105-0.002,0.209,0,0.314V494.5c0,1.378-1.121,2.5-2.5,2.5H53.499c-1.379,0-2.5-1.122-2.5-2.5V257.498     c0.816,0.118,1.651,0.178,2.5,0.178H236.34c9.649,0,17.5-7.851,17.5-17.5V27.207c0-0.849-0.061-1.683-0.178-2.5h146.883     c1.379,0,2.5,1.122,2.5,2.5V40c0,4.142,3.357,7.5,7.5,7.5s7.5-3.358,7.5-7.5V27.207c0-0.849-0.061-1.683-0.178-2.5h40.632     c1.379,0,2.5,1.122,2.5,2.5V108.111z" fill="#FFFFFF"/>
			<path d="M181.598,130.188v-6.554c1.072-1.314,1.729-2.933,1.871-4.685l1.021-12.76c0.702-8.775-3.164-17.381-10.102-22.467     l-0.473-0.342c-8.745-6.242-20.089-6.497-28.996-1.195c-8.908-5.303-20.251-5.047-28.997,1.197l-0.482,0.349     c-6.926,5.078-10.792,13.683-10.09,22.458l1.038,12.966c0.135,1.715,0.791,3.341,1.854,4.663v6.37     c0,11.751,5.557,22.23,14.179,28.948v2.721h-19.302c-4.499,0-8.967,1.158-12.922,3.348     c-10.866,6.018-17.617,17.615-17.617,30.266V220c0,4.142,3.357,7.5,7.5,7.5s7.5-3.358,7.5-7.5v-24.53     c0-7.198,3.787-13.768,9.885-17.144c1.736-0.962,3.691-1.47,5.654-1.47h21.516l14.902,15.36c1.412,1.456,3.354,2.277,5.383,2.277     s3.971-0.822,5.383-2.277l14.902-15.36h21.474c1.957,0,3.908,0.506,5.676,1.482c6.109,3.373,9.904,9.946,9.904,17.155V220     c0,4.142,3.357,7.5,7.5,7.5s7.5-3.358,7.5-7.5v-24.507c0-12.669-6.765-24.274-17.688-30.305     c-3.947-2.18-8.405-3.332-12.893-3.332h-19.259v-2.721C176.043,152.417,181.598,141.939,181.598,130.188z M152.421,168.492     l-7.5,7.731l-7.5-7.73v-2.398c4.844,1.011,10.156,1.01,15,0V168.492z M144.921,151.866c-11.954,0-21.679-9.725-21.679-21.678     v-4.473l29.123-4.823c2.091-0.346,4.249-0.153,6.242,0.558l7.991,2.85v5.888h0.001     C166.598,142.141,156.874,151.866,144.921,151.866z M163.645,107.322c-4.387-1.564-9.133-1.99-13.731-1.229l-29.138,4.825     l-0.474-5.926c-0.291-3.628,1.244-7.14,4.015-9.171l0.321-0.232c2.011-1.436,4.341-2.139,6.668-2.139     c3.012,0,6.017,1.179,8.31,3.472c1.407,1.407,3.314,2.197,5.304,2.197c1.99,0,3.897-0.791,5.304-2.197     c4.064-4.064,10.363-4.626,14.969-1.339l0.338,0.244c2.762,2.025,4.297,5.537,4.006,9.166l-0.344,4.308L163.645,107.322z" fill="#FFFFFF"/>
			<path d="M179.832,195.919c-4.143,0-7.5,3.358-7.5,7.5V220c0,4.142,3.357,7.5,7.5,7.5s7.5-3.358,7.5-7.5v-16.581     C187.332,199.277,183.975,195.919,179.832,195.919z" fill="#FFFFFF"/>
			<path d="M198.046,456.23H82.137c-4.143,0-7.5,3.358-7.5,7.5c0,4.142,3.357,7.5,7.5,7.5h115.909c4.143,0,7.5-3.358,7.5-7.5     C205.546,459.588,202.187,456.23,198.046,456.23z" fill="#FFFFFF"/>
			<path d="M82.137,442.109h86.932c4.143,0,7.5-3.358,7.5-7.5c0-4.142-3.357-7.5-7.5-7.5H82.137c-4.143,0-7.5,3.358-7.5,7.5     C74.637,438.751,77.993,442.109,82.137,442.109z" fill="#FFFFFF"/>
			<path d="M82.137,393.574h48.295c4.143,0,7.5-3.358,7.5-7.5c0-4.142-3.357-7.5-7.5-7.5H82.137c-4.143,0-7.5,3.358-7.5,7.5     C74.637,390.216,77.993,393.574,82.137,393.574z" fill="#FFFFFF"/>
			<path d="M102.507,203.419V220c0,4.142,3.357,7.5,7.5,7.5s7.5-3.358,7.5-7.5v-16.581c0-4.142-3.357-7.5-7.5-7.5     S102.507,199.277,102.507,203.419z" fill="#FFFFFF"/>
		</g>
	</g>
</g>
<g>
</g>
<g>
</g>
<g>
</g>
<g>
</g>
<g>
</g>
<g>
</g>
<g>
</g>
<g>
</g>
<g>
</g>
<g>
</g>
<g>
</g>
<g>
</g>
<g>
</g>
<g>
</g>
<g>
</g>
</svg>
